<?xml version="1.0" encoding="utf-8"?>
<svg viewBox="0 0 512 512" xmlns="http://www.w3.org/2000/svg" xmlns:bx="https://boxy-svg.com">
  <defs>
    <bx:grid x="0" y="0" width="15" height="15"/>
    <pattern id="pattern-0" x="0" y="0" width="25" height="25" patternUnits="userSpaceOnUse" viewBox="0 0 100 100">
      <rect x="0" y="0" width="50" height="100" style="fill: black;"/>
    </pattern>
  </defs>
  <rect x="345" y="345" width="90" height="90" style="stroke-linejoin: round; stroke-linecap: round; stroke-width: 2; fill: rgb(211, 243, 249);"/>
  <rect x="75" y="345" width="90" height="90" style="stroke-linejoin: round; stroke-linecap: round; stroke-width: 2; fill: rgb(76, 127, 230);"/>
  <path d="M 165 345 L 255 345 L 255 435 L 165 435 L 165 345 Z" style="stroke-linejoin: round; stroke-linecap: round; stroke-width: 2; fill: rgb(121, 179, 236);"/>
  <path d="M 345 345 L 345 435 L 255 435 L 255 345 L 345 345 Z" style="stroke-linejoin: round; stroke-linecap: round; stroke-width: 2; fill: rgb(166, 217, 243);"/>
  <path d="M 345 255 L 432.188 255 C 435 260.625 435 266.25 435 277.5 C 435 286.74 435 314.955 435 345 L 345 345 Z" style="stroke-linejoin: round; stroke-linecap: round; stroke-width: 2; fill: rgb(166, 243, 243);"/>
  <path d="M 165 255 L 165 345 L 75 345 C 75 320.57 75 295.833 75 277.5 C 75 266.25 75 260.625 77.813 255 Z" style="stroke-linejoin: round; stroke-linecap: round; stroke-width: 2; fill: rgb(121, 179, 236);"/>
  <path d="M 165 255 L 255 255 L 255 345 L 165 345 L 165 255 Z" style="stroke-linejoin: round; stroke-linecap: round; stroke-width: 2; fill: rgb(166, 217, 243);"/>
  <path d="M 255 255 L 345 255 L 345 345 L 255 345 L 255 255 Z" style="stroke-linejoin: round; stroke-linecap: round; stroke-width: 2; fill: rgb(211, 243, 249);"/>
  <rect x="165" y="165" width="90" height="90" style="stroke-linejoin: round; stroke-linecap: round; stroke-width: 2; fill: rgb(211, 243, 249);"/>
  <rect x="255" y="165" width="90" height="90" style="stroke-linejoin: round; stroke-linecap: round; stroke-width: 2; fill: rgb(166, 243, 243);"/>
  <path d="M 233.393 96.608 C 239.831 90.17 247.382 87.014 255 87.096 L 255 165 L 165 165 C 188.156 141.845 212.924 117.077 233.393 96.608 Z" style="stroke-linejoin: round; stroke-linecap: round; stroke-width: 2; fill: rgb(166, 243, 243);"/>
  <path d="M 277.473 97.473 C 297.45 117.45 321.981 141.981 345 165 L 255 165 L 255 87.096 C 262.793 87.182 270.656 90.656 277.473 97.473 Z" style="stroke-linejoin: round; stroke-linecap: round; stroke-width: 2; fill: rgb(117, 240, 220);"/>
  <path d="M 97.5 232.5 C 109.965 220.035 136.239 193.761 165 165 L 165 255 L 77.813 255 C 80.625 249.375 86.25 243.75 97.5 232.5 Z" style="stroke-linejoin: round; stroke-linecap: round; stroke-width: 2; fill: rgb(166, 217, 243);"/>
  <path d="M 412.5 232.5 C 423.75 243.75 429.375 249.375 432.188 255 L 345 255 L 345 165 C 373.866 193.866 400.355 220.355 412.5 232.5 Z" style="stroke-linejoin: round; stroke-linecap: round; stroke-width: 2; fill: rgb(117, 240, 220);"/>
</svg>