<?xml version="1.0" encoding="utf-8"?>
<!-- Generator: Adobe Illustrator 24.0.2, SVG Export Plug-In . SVG Version: 6.00 Build 0)  -->
<svg version="1.1" id="Layer_1" xmlns="http://www.w3.org/2000/svg" xmlns:xlink="http://www.w3.org/1999/xlink" x="0px" y="0px"
	 viewBox="0 0 56.7 56.7" style="enable-background:new 0 0 56.7 56.7;" xml:space="preserve">
<style type="text/css">
	.st0{fill:#009ADE;}
</style>
<g>
	<path class="st0" d="M28.4,23.3c2.8,0,5.1-2.3,5.1-5.1s-2.3-5.1-5.1-5.1c-2.8,0-5.1,2.3-5.1,5.1C23.3,21,25.5,23.3,28.4,23.3
		 M28.4,16.6c0.9,0,1.6,0.7,1.6,1.6s-0.7,1.6-1.6,1.6c-0.9,0-1.6-0.7-1.6-1.6C26.7,17.3,27.4,16.6,28.4,16.6"/>
	<path class="st0" d="M28.4,8.2c-5.1,0-9.3,4.2-9.3,9.3v4.7h3.5v-4.7c0-3.2,2.6-5.8,5.8-5.8c3.2,0,5.8,2.6,5.8,5.8v4.7h3.5v-4.7
		C37.6,12.4,33.5,8.2,28.4,8.2"/>
	<path class="st0" d="M34.2,28.8c0,3.2-2.6,5.8-5.8,5.8c-3.2,0-5.8-2.6-5.8-5.8v-4.1h-3.5v4.1c0,4.5,3.3,8.3,7.6,9.1V45h-7.6v3.5
		h18.6V45h-7.6v-7.1c4.3-0.8,7.6-4.6,7.6-9.1v-4.1h-3.5C34.2,24.7,34.2,28.8,34.2,28.8z"/>
</g>
</svg>
